<svg xmlns="http://www.w3.org/2000/svg" xmlns:xlink="http://www.w3.org/1999/xlink" viewBox="0 0 600 600"><defs><g id="m-floral"><path d="M310 555L307 549L303 542L300 536L298 529L295 523L292 517L290 511L288 505L286 498L284 492L282 487L280 481L279 475L277 469L276 463L275 457L274 452L273 446L273 441L272 435L272 429L272 424L271 418L272 413L272 407L272 402L273 397L273 391L274 386L275 381L276 375L278 370L279 365L281 359L282 354L284 349L286 343L288 338L291 333L293 328L296 322L298 317L301 312L304 306L294 296L291 302L287 307L284 313L281 318L278 324L276 329L273 335L271 340L268 346L266 352L264 357L263 363L261 369L260 374L258 380L257 386L256 392L255 397L255 403L254 409L254 415L254 421L253 427L254 433L254 439L254 445L255 451L256 457L256 464L258 470L259 476L260 482L262 489L263 495L265 502L267 508L269 514L272 521L274 528L277 534L279 541L282 548L285 555L288 561Z"/><path d="M306 304L309 300L312 295L315 291L317 286L320 281L322 277L324 272L326 268L327 263L329 258L330 254L331 249L332 244L333 240L334 235L334 231L335 226L335 221L335 217L335 212L335 207L335 203L334 198L334 193L333 189L332 184L331 179L330 174L329 170L328 165L327 160L326 155L324 151L323 146L321 141L319 136L318 131L316 127L314 122L312 117L310 112L308 107L306 102L304 97L297 97L299 102L301 107L302 112L304 117L306 122L308 127L309 132L311 136L312 141L314 146L315 151L316 155L317 160L319 165L320 169L321 174L321 179L322 183L323 188L323 192L324 197L324 201L324 205L324 210L324 214L324 219L324 223L323 227L323 231L322 236L321 240L320 244L319 248L318 252L316 257L315 261L313 265L311 269L309 273L307 277L304 281L302 286L299 290L296 294Z"/><path d="M300 470L307 461L311 453L314 445L315 438L316 430L317 423L317 416L316 409L315 402L314 396L312 389L309 383L306 377L302 372L298 367L294 362L289 358L284 354L279 351L273 348L267 346L262 344L256 343L250 342L244 342L238 342L233 343L227 344L222 345L216 346L211 347L205 349L200 351L194 353L189 355L183 357L178 359L172 361L167 363L161 366L155 368L150 370L144 372L138 374L135 375L142 374L147 373L153 372L159 371L165 370L171 369L177 369L183 369L188 368L194 368L199 369L205 369L210 370L215 371L219 372L223 373L227 375L231 376L234 378L237 380L240 382L242 384L244 386L246 388L247 390L249 392L250 395L251 397L253 399L254 402L256 404L257 407L259 411L261 414L263 418L265 422L268 426L271 431L274 436L277 441L281 447L285 453L290 459L295 466Z"/><path d="M300 430L308 425L313 420L318 415L322 411L326 407L330 403L333 399L336 396L339 393L341 390L343 387L345 384L347 382L349 380L351 378L352 376L354 374L355 372L357 370L359 368L360 367L362 365L365 363L367 362L370 360L373 359L376 358L380 357L383 356L387 356L392 355L396 355L401 355L405 355L410 355L415 356L420 357L425 358L430 359L435 360L440 361L445 363L450 364L455 366L458 366L453 364L448 361L443 359L439 357L434 354L429 352L425 350L420 347L416 345L411 342L407 340L402 338L398 336L393 334L388 332L384 331L379 329L374 328L369 327L364 327L359 326L354 326L348 327L343 328L338 329L333 331L328 334L323 336L318 340L314 343L310 347L306 352L303 357L300 362L297 367L295 372L293 378L292 384L291 390L291 397L291 404L292 410L294 418L296 426Z"/><path d="M292 350L297 343L298 336L299 330L300 324L300 318L299 312L298 307L297 302L295 297L293 292L291 287L288 283L285 279L282 275L278 272L274 269L270 266L265 264L261 262L256 260L252 259L247 259L242 258L238 259L233 259L229 260L225 261L220 262L216 263L212 265L208 266L204 268L200 270L196 272L192 274L188 276L184 278L180 280L176 282L172 284L168 286L163 289L159 291L155 292L153 294L157 293L162 291L166 290L171 289L175 288L180 287L184 286L189 285L193 284L197 284L201 284L205 284L209 284L213 284L217 285L220 285L223 286L226 287L229 288L232 289L234 291L236 292L238 293L240 295L241 296L243 298L244 300L245 301L247 303L248 305L249 307L251 309L253 311L255 313L257 316L259 319L262 322L264 325L267 328L271 332L274 335L278 339L283 343L288 347Z"/><path d="M300 300L307 296L312 292L317 288L321 285L324 281L328 278L331 275L334 272L336 270L339 267L341 265L343 263L345 261L346 259L348 257L349 255L351 254L352 252L354 251L355 249L357 248L359 247L361 245L363 244L366 243L368 242L371 241L375 241L378 240L381 240L385 240L389 240L393 240L397 241L401 241L406 242L410 243L414 244L419 245L423 247L427 248L432 250L436 251L440 253L443 254L439 251L435 249L431 247L427 244L423 242L419 239L415 237L411 235L407 232L403 230L399 228L396 225L392 223L388 221L384 219L380 218L376 216L371 215L367 214L363 213L358 212L354 212L349 212L344 213L339 214L335 215L330 217L326 219L322 222L317 225L314 228L310 232L307 236L304 240L302 244L299 249L297 254L296 259L295 265L294 270L294 276L294 282L295 289L297 296Z"/><path d="M316 230L322 232L327 232L331 232L335 233L338 233L342 233L345 232L348 232L350 232L353 232L355 232L358 232L360 231L362 231L363 231L365 231L367 230L369 230L370 230L372 230L374 230L376 230L378 230L380 231L382 231L384 232L386 233L389 234L391 235L393 236L396 238L398 239L400 241L403 243L405 245L407 247L410 250L412 252L414 255L416 257L418 260L420 263L422 266L424 268L425 270L424 266L422 263L421 260L419 257L418 254L417 251L415 248L414 245L413 242L411 239L410 236L408 233L407 230L405 227L404 224L402 221L400 219L398 216L396 213L394 211L391 209L389 206L386 204L383 202L380 201L376 199L373 198L369 197L366 197L362 197L358 197L354 197L351 198L347 198L343 200L340 201L336 203L333 205L330 208L327 211L324 214L321 217L318 221L316 226Z"/><path d="M300 210L303 204L304 200L304 195L304 191L304 187L303 183L302 179L301 176L299 172L298 169L296 166L293 163L291 160L288 158L285 156L282 154L279 152L276 151L273 149L269 149L266 148L263 148L259 147L256 148L253 148L249 148L246 149L243 150L240 151L237 152L234 153L231 154L228 155L226 157L223 158L220 160L217 161L214 163L211 164L208 165L205 167L202 168L199 170L196 171L195 172L198 171L201 170L204 169L207 169L211 168L214 167L217 167L220 166L223 166L226 166L229 166L232 166L235 166L238 166L240 167L243 167L245 168L247 169L250 170L252 170L253 171L255 172L256 174L258 175L259 176L260 177L262 178L263 179L264 181L265 182L266 183L268 185L269 186L271 188L272 189L274 191L276 193L278 195L281 197L283 199L286 201L289 204L293 206L297 209Z"/><path d="M300 88L303 88L304 87L306 86L307 85L308 84L309 83L310 82L311 81L311 80L312 79L312 78L312 77L313 76L313 75L313 73L313 72L313 71L313 70L312 69L312 67L312 66L311 65L311 64L311 63L310 62L310 61L309 60L309 58L308 57L308 56L307 55L306 54L306 53L305 52L305 51L304 50L304 49L303 48L303 47L302 46L302 45L301 44L301 43L300 42L300 42L300 43L300 44L300 45L300 46L300 47L300 48L300 50L300 51L299 52L299 53L299 54L299 55L299 56L298 57L298 58L298 59L297 60L297 61L297 62L296 63L296 64L296 65L295 66L295 67L295 68L294 69L294 69L294 70L294 71L294 72L293 73L293 74L293 75L293 76L293 77L294 78L294 79L294 80L295 81L295 82L296 83L296 84L297 86L299 87Z"/><path d="M300 88L302 90L304 91L305 91L306 92L308 92L309 92L311 92L312 92L313 92L314 92L315 91L316 91L317 90L318 90L319 89L320 88L321 87L322 86L323 86L324 85L324 84L325 83L326 82L326 81L327 80L327 78L328 77L328 76L329 75L329 74L330 73L330 72L331 71L331 70L332 69L332 68L332 67L333 66L333 65L334 64L334 63L335 62L335 61L336 60L336 59L335 60L334 61L333 61L333 62L332 63L331 63L330 64L329 64L328 65L327 65L326 66L325 66L324 67L323 67L322 68L321 68L320 69L319 69L318 69L317 70L316 70L315 70L314 71L313 71L313 71L312 72L311 72L310 72L309 73L308 73L308 73L307 74L306 75L306 75L305 76L304 76L304 77L303 78L302 79L302 80L301 82L301 83L300 84L300 86Z"/><path d="M300 88L300 91L300 92L300 94L301 95L302 97L302 98L303 99L304 100L305 101L306 101L307 102L308 103L309 103L310 103L311 104L313 104L314 104L315 104L316 104L317 104L319 104L320 104L321 104L322 104L323 104L325 103L326 103L327 103L328 103L329 102L330 102L331 102L333 101L334 101L335 101L336 100L337 100L338 100L339 99L340 99L341 99L342 99L343 99L344 98L345 98L344 98L343 98L342 98L341 97L340 97L339 97L338 96L336 96L335 95L334 95L333 95L332 94L331 94L331 93L330 93L329 92L328 92L327 91L326 91L325 90L324 89L323 89L323 88L322 88L321 87L320 87L319 86L319 86L318 86L317 85L316 85L315 85L314 84L314 84L313 84L312 84L311 84L310 84L308 84L307 85L306 85L304 85L303 86L301 87Z"/><path d="M300 88L298 89L296 91L296 92L295 93L294 95L294 96L293 97L293 99L293 100L293 101L293 102L294 103L294 105L294 106L295 107L295 108L296 109L297 110L297 111L298 112L299 113L300 114L301 114L301 115L302 116L303 117L304 118L305 118L306 119L307 120L308 120L309 121L310 122L311 122L312 123L313 124L314 124L314 125L315 126L316 126L317 127L318 128L319 128L319 129L320 129L320 128L319 127L319 127L318 126L318 125L317 124L317 122L317 121L316 120L316 119L316 118L315 117L315 116L315 115L315 114L315 113L314 112L314 111L314 110L314 109L314 108L314 107L314 106L314 105L314 104L313 103L313 102L313 101L313 100L313 100L312 99L312 98L312 97L311 96L311 95L310 95L310 94L309 93L308 92L307 91L306 91L305 90L303 89L302 88Z"/><path d="M300 88L297 87L296 87L294 87L292 87L291 88L290 88L289 89L288 89L287 90L286 91L285 92L284 93L283 94L283 95L282 96L282 97L281 98L281 99L280 100L280 101L280 103L280 104L280 105L280 106L279 107L279 108L279 110L279 111L279 112L280 113L280 114L280 116L280 117L280 118L280 119L280 120L280 121L280 122L280 123L280 125L280 126L280 127L280 128L280 129L280 129L281 128L281 127L281 127L282 126L282 125L283 124L284 123L284 122L285 121L285 120L286 119L287 118L287 117L288 117L289 116L290 115L290 114L291 113L292 113L292 112L293 111L294 111L295 110L295 109L296 109L297 108L297 107L298 107L298 106L299 105L299 104L300 104L300 103L301 102L301 101L301 100L301 99L302 98L302 97L302 96L302 94L302 93L301 91L301 89Z"/><path d="M300 88L299 85L298 84L297 83L296 82L295 81L294 80L292 80L291 79L290 79L289 79L288 78L286 78L285 78L284 79L283 79L282 79L281 79L279 80L278 80L277 81L276 81L275 82L274 83L273 83L272 84L271 85L270 85L269 86L268 87L267 88L267 88L266 89L265 90L264 91L263 92L262 92L262 93L261 94L260 95L259 95L258 96L257 97L256 97L256 98L255 98L256 98L257 98L258 98L259 97L260 97L262 97L263 97L264 97L265 97L266 97L267 97L268 97L269 97L270 97L271 97L272 97L273 97L274 97L276 97L277 97L278 97L279 97L279 97L280 98L281 98L282 98L283 98L284 98L285 98L286 98L287 98L288 98L289 97L289 97L290 97L291 97L292 96L293 96L294 95L295 94L296 93L297 92L298 91L299 89Z"/><path d="M300 88L301 86L302 84L302 82L302 81L302 79L302 78L302 77L301 76L301 74L300 73L300 72L299 71L298 71L297 70L297 69L296 68L295 67L294 67L292 66L291 66L290 65L289 65L288 64L287 64L286 64L285 63L283 63L282 63L281 63L280 62L279 62L278 62L277 62L275 62L274 61L273 61L272 61L271 61L270 61L269 61L268 60L267 60L266 60L265 59L264 59L265 60L266 61L267 61L267 62L268 63L269 63L270 64L271 65L271 66L272 67L273 68L273 68L274 69L275 70L275 71L276 72L277 73L277 74L278 74L278 75L279 76L279 77L280 78L280 79L281 79L281 80L282 81L282 82L283 82L284 83L284 84L285 84L285 85L286 85L287 86L288 86L289 87L290 87L291 88L292 88L293 88L295 88L296 88L298 88Z"/><path d="M292.2 88.0 a7.8 7.8 0 1 0 15.6 0 a7.8 7.8 0 1 0 -15.6 0Z"/><path d="M300 130L303 129L304 127L306 126L307 125L308 123L308 122L309 121L310 119L310 118L310 117L310 115L310 114L310 112L310 111L310 110L310 108L310 107L310 106L309 104L309 103L309 102L308 100L308 99L307 98L307 96L306 95L306 94L306 92L305 91L305 90L304 88L304 87L303 86L303 84L303 83L302 81L302 80L301 79L301 77L301 76L301 75L301 73L300 72L300 71L300 70L300 71L300 73L299 74L299 75L299 77L299 78L298 79L298 81L298 82L297 83L297 85L296 86L296 88L296 89L295 90L295 92L294 93L294 94L293 96L293 97L292 98L292 100L292 101L291 102L291 104L290 105L290 106L290 108L290 109L290 110L290 112L290 113L290 114L290 116L290 117L290 119L291 120L291 121L292 123L293 124L294 125L295 127L296 128L298 129Z"/><path d="M163 402L164 396L164 391L165 385L167 380L169 375L172 371L175 367L178 363L182 359L185 357L189 354L194 352L198 350L202 349L206 349L211 348L215 349L219 349L223 350L227 352L230 353L233 355L236 357L239 360L241 363L243 366L245 369L247 372L248 375L248 378L249 381L249 384L249 387L248 390L247 393L246 396L245 398L243 401L242 403L240 405L238 407L235 408L233 409L231 410L228 411L226 411L224 412L221 412L219 411L217 411L215 410L213 409L211 408L209 407L208 406L206 404L205 403L204 401L203 399L202 398L202 396L202 394L201 392L202 390L202 389L202 387L203 386L203 384L204 383L205 381L206 380L207 379L209 378L210 377L211 377L213 376L214 376L215 376L217 376L218 376L219 376L221 376L222 377L223 378L224 378L223 377L221 376L220 376L219 376L218 375L216 375L215 375L213 375L212 376L210 376L209 377L207 378L206 379L205 380L203 381L202 382L201 384L201 386L200 387L199 389L199 391L199 393L199 395L199 397L200 399L201 402L202 404L203 406L204 407L206 409L208 411L210 412L212 413L215 414L217 415L220 416L222 416L225 416L228 416L231 415L234 414L237 413L239 412L242 410L244 408L247 406L249 403L251 400L252 397L253 394L254 390L255 386L255 383L255 379L255 375L254 371L252 367L251 364L248 360L246 356L243 353L240 350L236 348L232 345L228 343L223 342L218 341L213 340L208 340L203 340L198 341L193 343L188 345L183 347L178 350L173 354L169 358L165 363L162 368L159 373L156 379L154 385L153 392L153 399Z"/><path d="M457 368L459 362L461 355L462 348L462 340L462 333L461 325L459 318L456 311L452 304L448 297L443 290L437 284L431 279L423 274L416 270L407 266L399 263L390 262L380 261L371 261L361 262L351 263L342 266L332 270L323 275L314 281L306 288L298 296L291 305L285 315L280 325L275 336L272 348L270 360L269 373L269 385L271 398L274 411L279 424L284 436L291 448L300 460L309 471L320 481L332 490L346 497L360 504L375 509L390 513L407 515L424 516L441 515L458 512L475 507L492 501L508 493L524 483L539 471L553 457L566 442L578 425L588 407L596 388L602 368L607 346L609 324L609 302L607 279L602 256L595 233L585 210L574 189L559 168L543 148L524 130L503 113L480 98L455 86L429 76L401 68L372 63L342 61L311 62L280 66L265 69L296 64L327 61L357 62L386 66L415 72L442 81L467 92L491 106L513 122L533 139L550 158L566 179L579 200L589 222L597 245L603 268L606 290L607 313L606 335L602 357L597 377L590 397L580 415L570 432L558 448L544 462L530 474L515 485L499 494L482 501L465 506L449 510L432 512L415 512L399 510L384 507L369 503L354 497L341 490L329 481L318 472L308 462L300 451L292 440L286 428L281 416L278 403L276 391L275 379L275 367L277 355L280 344L283 333L288 323L294 314L300 305L307 297L314 290L323 284L331 279L340 275L349 272L358 270L367 269L375 269L384 269L393 271L401 273L408 276L415 280L422 284L428 289L433 294L438 299L442 305L445 311L448 318L450 324L451 331L452 337L452 343L451 350L450 356L448 361Z"/><path d="M211 212L209 216L207 220L206 224L205 229L204 233L204 238L204 243L205 248L206 252L207 257L209 262L212 266L215 271L218 275L222 279L226 282L231 286L235 289L241 291L246 293L252 295L258 296L264 296L270 296L276 296L283 295L289 293L295 291L301 288L307 284L313 280L318 276L323 271L327 265L332 259L335 252L338 245L341 238L343 230L344 222L344 214L344 206L343 198L341 189L339 181L335 173L331 165L326 157L321 150L314 143L307 137L300 131L291 126L282 121L273 117L263 114L253 112L242 111L231 111L220 112L209 113L198 116L187 120L176 125L166 130L156 137L146 145L137 154L129 164L121 174L115 186L109 198L104 211L101 224L98 238L97 253L97 267L99 282L102 297L106 312L111 327L118 341L127 355L136 368L142 374L132 361L123 348L115 334L109 319L104 304L100 290L98 275L98 260L98 246L100 231L103 218L107 205L113 192L119 181L126 170L134 160L143 150L152 142L162 135L172 129L182 124L193 119L204 116L215 114L226 113L237 113L247 114L257 116L267 118L277 122L286 126L294 131L302 136L309 142L315 149L321 156L326 163L330 171L334 178L337 186L339 194L340 202L340 210L340 218L339 226L338 233L336 240L333 247L330 253L326 259L322 265L317 270L312 274L307 278L302 282L296 285L290 287L284 289L278 290L273 291L267 291L261 290L256 290L251 288L245 287L241 284L236 282L232 279L228 276L225 272L222 269L219 265L217 261L215 257L213 253L212 248L211 244L211 240L211 236L212 232L212 228L213 224L215 221L217 218Z"/><path d="M384 179L385 182L385 186L385 189L384 193L383 196L382 199L381 202L380 205L378 208L376 210L374 212L372 214L369 216L367 217L364 219L362 220L359 220L356 221L354 221L351 221L348 221L346 221L344 220L341 219L339 218L337 217L335 216L333 214L332 213L330 211L329 209L328 207L327 205L327 203L326 201L326 199L326 197L326 196L326 194L326 192L327 190L327 188L328 187L329 185L330 184L331 183L333 181L334 180L335 180L337 179L338 178L340 178L341 177L342 177L344 177L345 177L347 177L348 178L350 178L351 179L352 179L353 180L354 181L355 182L356 183L357 184L357 185L358 186L358 187L359 188L359 189L359 190L359 192L359 193L359 194L358 195L358 196L358 197L357 198L356 198L356 199L355 200L354 201L354 201L353 201L354 201L355 200L356 200L356 199L357 198L358 197L358 196L359 195L359 194L359 193L360 192L360 191L360 190L360 189L360 187L359 186L359 185L358 184L358 182L357 181L356 180L355 179L354 178L352 177L351 177L350 176L348 175L347 175L345 175L343 175L341 175L340 175L338 175L336 176L335 177L333 177L331 178L330 180L328 181L327 182L326 184L325 186L324 188L323 190L322 192L322 194L322 196L321 199L322 201L322 203L323 206L323 208L325 210L326 213L327 215L329 217L331 219L333 221L335 222L338 224L340 225L343 226L346 226L349 227L352 227L355 227L359 227L362 226L365 225L368 224L371 222L374 220L377 218L380 216L382 213L385 210L387 207L388 204L390 200L391 196L392 192L392 188L392 184L392 180Z"/><path d="M302 541L297 539L293 538L289 536L284 534L280 533L275 532L271 530L267 529L263 528L258 527L254 526L250 525L246 524L241 523L237 523L233 522L229 522L225 521L221 521L217 520L213 520L209 520L205 519L202 519L198 519L194 518L190 518L187 518L183 518L179 518L176 518L172 518L169 517L165 517L162 517L159 517L155 517L152 516L149 516L146 516L143 516L140 515L137 515L134 515L132 516L135 517L138 518L141 518L144 518L147 519L150 519L154 520L157 520L160 520L163 520L167 521L170 521L174 521L177 522L181 522L184 522L188 522L192 523L196 523L199 524L203 524L207 524L211 525L215 525L218 526L222 526L226 527L230 528L234 528L238 529L242 530L246 531L251 532L255 533L259 534L263 535L267 536L271 538L275 539L279 541L284 542L288 544L292 546L296 548Z"/><path d="M270 540L273 539L276 538L278 537L280 535L282 534L283 532L285 531L286 529L287 527L288 525L289 523L289 521L290 519L290 517L290 515L290 513L290 511L289 509L289 508L288 506L287 504L286 502L285 501L284 500L283 498L281 497L280 496L278 495L277 494L275 493L274 492L272 492L271 491L269 490L267 489L266 489L264 488L262 487L261 487L259 486L257 485L256 484L254 484L252 483L251 483L253 484L254 485L256 486L258 487L259 488L260 489L262 490L263 491L264 492L266 494L267 495L268 496L269 497L270 499L271 500L271 501L272 502L272 503L273 505L273 506L273 507L273 508L273 509L273 509L273 510L273 511L273 512L273 513L273 514L272 515L272 516L272 517L272 518L272 519L271 520L271 522L271 523L271 525L270 526L270 528L270 530L270 533L270 535L270 538Z"/><path d="M215 530L213 533L213 535L212 537L212 538L211 540L211 542L211 543L210 545L210 546L210 547L210 548L210 549L209 550L209 551L209 552L209 553L209 553L209 554L209 555L208 555L208 556L208 557L208 558L207 559L207 559L206 560L205 561L205 562L204 563L203 563L202 564L201 565L199 566L198 566L197 567L195 568L194 568L192 569L191 569L189 570L188 570L186 570L185 571L183 571L182 571L184 571L186 571L187 571L189 571L190 571L192 571L194 571L195 571L197 571L198 571L200 570L201 570L203 570L205 570L206 570L208 569L209 569L211 569L212 568L213 568L215 567L216 566L218 565L219 564L220 563L221 561L222 560L223 559L224 557L224 555L225 554L225 552L225 550L225 548L225 546L225 545L224 543L224 541L223 539L222 537L221 536L220 534L218 532L216 531Z"/><path d="M159 520L162 520L164 519L166 518L167 517L168 516L169 515L171 513L171 512L172 511L173 509L174 508L174 506L174 505L175 503L175 502L175 500L174 499L174 497L174 496L173 495L172 493L172 492L171 491L170 490L169 489L168 488L167 487L166 487L165 486L164 485L162 485L161 484L160 483L159 483L158 482L156 482L155 481L154 481L152 480L151 480L150 479L149 479L147 478L146 477L145 477L147 478L148 479L149 480L150 480L151 481L152 482L153 483L154 484L155 485L156 486L157 486L158 487L159 488L159 489L160 490L160 491L161 492L161 493L162 494L162 495L162 495L162 496L162 497L162 497L162 498L162 499L162 499L162 500L161 501L161 501L161 502L161 503L161 504L161 504L160 505L160 507L160 508L160 509L160 510L159 512L159 513L159 515L159 517L159 519Z"/><path d="M133 515L133 514L133 512L132 511L132 510L131 509L131 508L130 507L129 506L129 505L128 505L127 504L126 503L125 503L124 502L123 502L122 502L121 502L120 501L119 501L118 501L117 501L116 501L115 501L114 502L113 502L112 502L111 502L110 503L109 503L108 503L107 504L106 504L105 504L104 505L103 505L102 506L101 506L101 506L100 507L99 507L98 508L97 508L96 508L95 509L95 509L96 509L97 509L98 508L99 508L100 508L100 508L101 508L102 508L103 508L104 508L105 508L106 508L107 508L108 508L109 508L110 509L110 509L111 509L112 509L113 510L113 510L114 510L115 511L115 511L116 511L117 511L117 512L118 512L119 512L119 513L120 513L120 513L121 514L122 514L122 514L123 515L124 515L125 515L126 515L127 515L128 516L129 516L130 516L132 516Z"/><path d="M300 549L304 549L309 549L314 550L319 550L323 549L328 549L332 549L337 549L341 548L345 548L350 547L354 547L358 546L362 545L366 544L371 544L375 543L379 542L382 541L386 540L390 539L394 538L398 537L401 536L405 535L409 534L412 533L416 531L419 530L423 529L426 528L429 527L433 526L436 525L439 524L442 523L445 522L449 521L452 520L455 520L458 519L460 518L463 517L466 517L467 514L464 515L461 515L459 516L456 517L452 517L449 518L446 519L443 520L440 520L437 521L433 522L430 523L427 524L423 525L420 526L416 527L413 528L409 529L406 530L402 531L398 532L395 533L391 533L387 534L383 535L379 536L375 537L371 538L367 538L363 539L359 539L355 540L351 541L347 541L343 541L338 542L334 542L330 542L325 542L321 542L316 542L312 542L307 542L303 541Z"/><path d="M330 540L333 542L335 543L337 544L339 545L340 546L342 547L344 548L345 549L347 549L348 550L349 550L350 551L351 551L352 551L353 552L354 552L354 552L355 553L356 553L357 554L357 554L358 554L359 555L360 556L361 557L361 557L362 558L363 560L363 561L364 562L364 563L365 565L365 566L366 568L366 570L366 571L367 573L367 575L367 577L367 579L367 580L367 582L367 584L367 586L367 587L367 585L368 583L368 581L368 580L369 578L369 576L370 574L370 572L370 571L371 569L371 567L371 565L371 564L372 562L372 560L372 558L372 557L372 555L372 553L371 551L371 550L370 548L370 546L369 544L368 543L367 541L366 540L364 538L363 537L361 536L359 535L357 534L355 533L353 533L351 533L349 532L347 532L345 533L343 533L341 533L338 534L336 535L334 536L331 538Z"/><path d="M385 530L388 531L390 532L393 532L395 532L397 532L399 532L401 531L402 531L404 530L406 529L407 528L409 527L410 526L411 524L412 523L413 522L414 520L415 519L415 517L416 515L416 514L416 512L416 510L416 509L416 507L415 506L415 504L415 503L414 501L413 500L413 499L412 497L411 496L410 494L410 493L409 492L408 490L407 489L406 488L405 486L405 485L404 483L403 482L402 481L402 480L402 482L403 483L403 485L404 486L404 488L405 489L405 491L406 492L406 494L406 495L406 497L406 498L407 499L406 501L406 502L406 503L406 504L406 505L406 506L405 507L405 508L404 509L404 510L403 510L403 511L402 511L402 512L401 512L401 513L400 513L400 514L399 515L398 515L397 516L396 517L396 518L395 519L394 520L392 521L391 522L390 523L389 525L388 527L386 528Z"/><path d="M441 520L443 522L444 523L446 524L447 524L448 525L450 526L451 526L452 527L453 527L454 528L455 528L456 528L456 529L457 529L458 529L458 530L459 530L460 530L460 530L461 531L461 531L462 531L462 532L463 532L464 533L464 534L465 534L465 535L466 536L466 537L466 538L467 539L467 540L467 542L468 543L468 544L468 545L468 547L468 548L468 550L468 551L468 552L468 554L468 555L468 556L469 554L469 553L469 552L469 550L470 549L470 548L470 546L471 545L471 544L471 542L471 541L472 540L472 538L472 537L472 536L472 534L472 533L472 532L472 530L472 529L471 528L471 526L471 525L470 524L469 522L468 521L467 520L466 519L465 518L464 517L462 517L461 516L460 516L458 515L457 515L455 515L453 515L452 515L450 515L448 515L447 516L445 517L443 518L442 519Z"/><path d="M467 515L468 517L468 519L469 520L470 521L471 521L472 522L473 523L474 523L475 524L476 524L477 524L478 525L479 525L480 525L481 525L482 525L483 525L484 524L485 524L486 524L487 523L488 523L489 522L490 522L491 521L492 521L493 520L493 520L494 519L495 518L496 518L496 517L497 516L498 516L499 515L499 514L500 514L501 513L501 512L502 512L503 511L503 510L504 510L505 509L505 509L504 509L504 510L503 510L502 511L501 511L500 511L499 512L498 512L498 513L497 513L496 513L495 513L494 514L493 514L492 514L491 514L491 514L490 514L489 514L488 514L487 514L487 514L486 514L485 514L484 514L484 514L483 514L482 514L482 513L481 513L480 513L480 513L479 513L478 513L477 513L477 513L476 513L475 513L474 513L473 513L472 514L471 514L470 514L468 515Z"/><path d="M140.0 500.0 a10.0 10.0 0 1 0 20.0 0 a10.0 10.0 0 1 0 -20.0 0Z"/><path d="M442.0 500.0 a10.0 10.0 0 1 0 20.0 0 a10.0 10.0 0 1 0 -20.0 0Z"/><path d="M120 300L123 302L126 304L129 304L132 305L135 305L137 304L140 304L142 304L145 303L147 302L149 301L151 299L153 298L155 296L157 295L158 293L160 291L161 289L162 287L163 285L164 283L165 280L165 278L165 276L166 274L166 272L166 269L166 267L165 265L165 263L165 261L165 259L164 257L164 255L163 252L163 250L162 248L162 246L161 244L161 242L160 240L160 238L160 236L159 233L159 232L159 235L159 237L159 239L159 241L159 243L159 245L158 247L158 250L158 252L157 254L157 255L156 257L156 259L155 261L155 263L154 264L153 266L152 267L151 268L150 270L149 271L148 272L147 273L146 274L146 275L145 275L144 276L143 277L142 278L140 278L139 279L138 280L137 281L136 282L135 283L134 284L132 285L131 286L129 288L128 289L126 291L124 293L123 295L121 298Z"/><path d="M482 300L480 297L478 294L477 292L475 290L473 289L472 287L471 286L469 284L468 283L467 282L465 281L464 280L463 279L462 279L461 278L460 277L459 276L458 276L457 275L456 274L455 273L454 272L453 271L452 270L451 269L450 268L449 266L449 265L448 263L447 262L446 260L446 258L445 256L445 255L444 253L444 251L444 248L443 246L443 244L443 242L443 240L443 238L443 236L443 234L443 232L442 235L442 237L442 239L441 241L441 243L440 245L440 247L439 249L439 251L439 254L438 256L438 258L437 260L437 262L437 264L436 266L436 268L436 270L436 273L437 275L437 277L437 279L438 281L439 284L439 286L440 288L442 290L443 292L444 294L446 296L448 297L450 299L452 300L454 301L456 302L458 303L461 304L463 304L466 305L469 305L471 304L474 304L477 303L480 302Z"/></g><pattern id="wp-floral" patternUnits="userSpaceOnUse" width="510" height="510" viewBox="0 0 600 600" fill="#FFFFFF"><use href="#m-floral" xlink:href="#m-floral" x="-900" y="-900"/><use href="#m-floral" xlink:href="#m-floral" x="-900" y="-300"/><use href="#m-floral" xlink:href="#m-floral" x="-900" y="300"/><use href="#m-floral" xlink:href="#m-floral" x="-900" y="900"/><use href="#m-floral" xlink:href="#m-floral" x="-600" y="-600"/><use href="#m-floral" xlink:href="#m-floral" x="-600" y="0"/><use href="#m-floral" xlink:href="#m-floral" x="-600" y="600"/><use href="#m-floral" xlink:href="#m-floral" x="-300" y="-900"/><use href="#m-floral" xlink:href="#m-floral" x="-300" y="-300"/><use href="#m-floral" xlink:href="#m-floral" x="-300" y="300"/><use href="#m-floral" xlink:href="#m-floral" x="-300" y="900"/><use href="#m-floral" xlink:href="#m-floral" x="0" y="-600"/><use href="#m-floral" xlink:href="#m-floral" x="0" y="0"/><use href="#m-floral" xlink:href="#m-floral" x="0" y="600"/><use href="#m-floral" xlink:href="#m-floral" x="300" y="-900"/><use href="#m-floral" xlink:href="#m-floral" x="300" y="-300"/><use href="#m-floral" xlink:href="#m-floral" x="300" y="300"/><use href="#m-floral" xlink:href="#m-floral" x="300" y="900"/><use href="#m-floral" xlink:href="#m-floral" x="600" y="-600"/><use href="#m-floral" xlink:href="#m-floral" x="600" y="0"/><use href="#m-floral" xlink:href="#m-floral" x="600" y="600"/><use href="#m-floral" xlink:href="#m-floral" x="900" y="-900"/><use href="#m-floral" xlink:href="#m-floral" x="900" y="-300"/><use href="#m-floral" xlink:href="#m-floral" x="900" y="300"/><use href="#m-floral" xlink:href="#m-floral" x="900" y="900"/></pattern></defs><rect width="600" height="600" fill="url(#wp-floral)"/></svg>