<svg xmlns="http://www.w3.org/2000/svg" xmlns:xlink="http://www.w3.org/1999/xlink" viewBox="0 0 600 600"><defs><g id="m-loops"><path d="M-56 135L-45 126L-35 119L-25 113L-15 109L-5 106L5 104L15 103L25 102L35 103L45 104L55 105L66 107L76 110L87 113L97 116L108 119L119 123L130 127L140 130L151 134L162 137L173 140L183 143L194 145L205 146L215 147L226 148L236 147L247 145L257 143L268 139L279 134L289 127L299 119L305 115L314 107L324 100L333 95L342 91L351 88L360 87L370 86L379 85L389 86L399 87L408 89L419 91L429 94L439 97L450 100L460 104L471 107L482 111L493 115L504 118L515 121L526 124L537 127L548 128L559 130L570 131L581 131L592 130L603 128L614 125L625 121L637 115L648 108L659 100L656 85L646 95L636 102L626 109L616 114L606 118L596 120L586 122L575 123L565 122L554 121L544 119L533 117L523 114L513 110L502 106L492 102L481 97L471 93L460 88L450 84L439 80L428 77L418 73L407 71L396 69L385 68L374 68L363 68L352 70L341 74L331 78L320 84L310 92L300 100L296 105L287 114L278 121L268 127L259 132L250 136L240 138L231 139L221 139L211 139L201 137L191 135L180 133L170 129L160 126L150 121L139 117L129 113L118 108L108 104L97 100L86 96L75 92L64 89L53 87L42 85L30 84L19 85L7 86L-4 88L-15 92L-27 97L-38 103L-49 111L-59 120Z"/><path d="M3 95L0 97L-2 99L-4 102L-5 104L-6 106L-7 108L-8 111L-9 113L-9 116L-9 118L-9 120L-9 122L-8 125L-8 127L-7 129L-6 131L-5 133L-4 135L-2 137L-1 138L1 140L2 141L4 143L6 144L8 145L10 146L11 147L13 148L15 148L17 149L19 150L21 150L23 151L25 151L27 152L29 152L31 152L33 153L35 153L37 154L39 154L41 155L43 155L45 156L46 156L44 155L42 154L40 153L39 152L37 151L35 150L33 149L32 148L30 147L28 146L27 145L25 144L24 142L23 141L22 140L21 139L20 137L19 136L18 135L17 134L17 132L16 131L16 130L15 129L15 127L15 126L15 125L14 124L14 123L14 122L14 120L13 119L13 118L13 116L12 115L12 113L11 112L11 110L10 108L9 106L9 104L8 102L6 100L5 97Z"/><path d="M121 117L124 114L126 112L127 110L128 108L129 106L130 104L131 103L132 101L133 100L133 98L134 97L135 95L135 94L135 93L136 92L136 91L137 90L137 89L138 88L138 86L139 85L139 84L140 83L141 82L141 81L142 80L143 78L145 77L146 76L147 75L149 74L150 73L152 72L153 71L155 70L157 69L158 69L160 68L162 67L164 67L166 66L168 65L170 65L172 64L173 64L171 64L169 64L167 64L165 65L163 65L161 65L159 65L157 65L155 65L153 65L151 65L148 65L146 66L144 66L142 66L140 67L138 67L136 67L134 68L132 69L131 70L129 71L127 72L125 73L123 74L122 76L120 77L119 79L117 81L116 83L115 85L114 87L113 89L113 91L112 94L112 96L112 98L112 101L113 103L113 106L114 108L116 111L117 113L119 116Z"/><path d="M236 143L232 144L230 146L228 149L227 151L225 153L224 155L223 157L223 160L222 162L222 164L222 167L222 169L222 171L223 174L223 176L224 178L225 180L226 182L227 184L229 186L230 187L232 189L233 190L235 191L237 193L238 194L240 195L242 196L244 197L246 197L248 198L250 199L252 199L253 200L255 201L257 201L259 202L261 202L263 203L265 203L267 204L269 205L271 205L273 206L274 206L272 205L270 204L269 203L267 202L265 201L263 200L262 199L260 198L259 196L257 195L256 194L255 193L253 191L252 190L251 189L250 187L249 186L248 185L248 183L247 182L247 181L246 179L246 178L246 177L245 176L245 174L245 173L245 172L245 171L244 170L244 169L244 167L244 166L244 165L243 163L243 161L243 160L242 158L242 156L241 154L240 152L240 150L239 147L237 145Z"/><path d="M339 83L339 80L339 77L339 74L338 72L338 70L337 68L337 66L337 64L336 63L336 61L335 60L335 59L334 57L334 56L333 55L333 54L332 53L332 52L332 51L331 50L331 48L330 47L330 46L330 45L330 43L330 42L330 40L330 39L330 37L330 35L331 34L331 32L331 30L332 28L333 26L333 25L334 23L335 21L336 19L337 17L338 16L339 14L340 12L341 11L342 10L340 11L339 13L337 14L336 16L335 17L333 18L332 20L330 21L329 23L327 24L326 26L325 27L323 29L322 30L321 32L319 33L318 35L317 37L316 39L315 40L314 42L313 44L313 46L312 48L312 51L312 53L312 55L312 57L312 60L312 62L313 64L314 66L315 68L316 70L317 72L319 74L320 76L322 78L324 79L326 80L328 82L331 83L334 83L337 84Z"/><path d="M452 93L448 93L445 94L443 95L441 96L438 98L436 99L435 101L433 103L432 104L430 106L429 108L428 110L427 113L427 115L426 117L426 119L426 122L426 124L426 126L427 128L427 130L428 132L429 134L430 136L431 138L432 140L433 142L434 143L435 145L437 146L438 148L440 149L441 151L442 152L444 154L445 155L447 156L448 158L450 159L451 161L453 162L454 163L456 165L457 166L458 167L457 165L456 164L455 162L453 160L452 159L451 157L450 155L450 153L449 151L448 150L447 148L447 146L446 144L446 143L445 141L445 139L445 138L445 136L445 135L445 133L445 132L445 131L445 129L446 128L446 127L446 126L447 125L447 124L448 122L448 121L448 120L449 119L449 118L450 116L450 115L450 113L451 112L451 110L452 108L452 106L452 104L453 101L453 98L453 95Z"/><path d="M570 127L572 123L573 121L573 118L574 116L574 114L575 112L575 110L575 108L575 107L576 105L576 104L576 102L576 101L576 100L576 98L576 97L576 96L576 95L576 94L576 92L576 91L577 90L577 89L577 87L578 86L578 85L579 83L579 82L580 80L581 79L582 77L583 76L584 75L586 73L587 72L588 70L590 69L591 68L593 66L594 65L596 64L598 63L599 62L601 61L602 60L600 61L598 61L596 62L594 63L592 64L590 65L589 65L587 66L585 67L583 68L581 68L579 69L577 70L576 71L574 72L572 73L570 74L568 75L567 76L565 78L564 79L562 81L561 82L559 84L558 86L557 88L556 90L555 92L555 94L554 96L554 98L554 101L554 103L554 105L554 108L555 110L556 112L557 114L558 117L559 119L561 121L563 123L565 124L568 126Z"/><path d="M78 211L83 212L88 213L94 214L99 214L105 213L110 212L116 210L121 208L127 205L132 202L136 198L141 193L145 188L148 183L151 177L154 171L155 164L156 157L157 150L157 143L156 136L154 128L152 121L148 114L144 108L140 101L134 95L128 90L121 85L114 80L106 77L98 74L89 72L80 70L70 70L61 71L51 72L42 75L32 78L23 83L15 89L6 95L-2 103L-9 111L-15 120L-20 130L-25 141L-29 152L-31 164L-32 176L-32 189L-31 201L-28 214L-24 227L-19 239L-13 251L-5 263L4 274L15 284L26 293L39 301L53 308L67 313L83 318L99 320L115 321L132 321L149 319L166 314L182 309L199 301L215 292L230 280L244 268L257 253L269 237L279 220L288 201L295 181L300 160L303 139L303 116L302 94L298 71L295 60L300 82L303 105L303 128L301 150L297 171L291 191L283 210L274 228L262 245L250 260L236 273L222 285L206 295L190 304L174 310L157 315L140 318L123 319L107 319L91 317L75 314L61 309L47 302L34 295L22 286L11 277L2 266L-6 255L-13 244L-19 232L-23 220L-26 207L-28 195L-29 183L-28 171L-26 159L-23 148L-19 137L-14 127L-8 118L-2 110L5 102L13 96L21 90L30 85L39 81L48 78L57 77L66 76L75 76L84 76L92 78L100 81L107 84L114 88L121 92L127 97L132 102L137 108L141 114L144 121L146 127L148 134L149 140L149 147L149 153L148 159L147 165L145 171L143 176L140 181L136 186L133 190L129 193L124 196L120 199L115 201L111 203L106 204L101 204L97 204L92 204L88 203L84 202Z"/><path d="M428 24L431 25L434 27L437 29L440 31L442 33L444 35L446 38L447 40L448 43L449 45L450 48L450 51L451 53L450 56L450 59L450 61L449 64L448 66L447 68L446 70L444 72L443 73L441 75L439 76L437 77L435 78L433 79L431 79L429 80L427 80L425 80L423 80L422 79L420 79L418 78L417 77L415 76L414 75L412 74L411 73L410 71L410 70L409 68L408 67L408 65L408 64L408 62L408 61L408 59L408 58L409 57L409 55L410 54L411 53L411 52L412 51L413 50L414 50L415 49L416 49L418 48L419 48L420 48L421 48L422 48L423 48L424 48L425 48L426 49L427 49L428 50L429 50L430 51L430 52L431 53L431 54L432 54L432 55L432 56L432 57L432 58L432 59L432 60L432 61L432 61L432 60L432 59L433 58L433 57L433 57L433 56L432 55L432 54L432 53L431 52L431 51L430 50L429 49L428 48L427 48L426 47L425 47L424 46L423 46L422 46L420 46L419 46L418 46L416 46L415 47L414 47L412 48L411 49L410 50L409 51L408 52L407 53L406 55L405 56L405 58L404 60L404 61L404 63L404 65L404 67L405 69L405 71L406 72L407 74L408 76L410 78L411 79L413 80L415 82L417 83L419 84L421 84L424 85L426 85L428 85L431 85L434 85L436 84L439 83L441 82L443 81L446 79L448 77L450 75L452 73L453 70L455 68L456 65L457 62L458 58L458 55L458 52L458 48L457 45L456 42L455 38L453 35L451 32L449 29L447 26L444 23L441 21L437 18L434 17Z"/><path d="M-56 355L-45 346L-35 339L-25 333L-15 329L-5 326L5 324L15 323L25 322L35 323L45 324L55 325L66 327L76 330L87 333L97 336L108 339L119 343L130 347L140 350L151 354L162 357L173 360L183 363L194 365L205 366L215 367L226 368L236 367L247 365L257 363L268 359L279 354L289 347L299 339L305 335L314 327L324 320L333 315L342 311L351 308L360 307L370 306L379 305L389 306L399 307L408 309L419 311L429 314L439 317L450 320L460 324L471 327L482 331L493 335L504 338L515 341L526 344L537 347L548 348L559 350L570 351L581 351L592 350L603 348L614 345L625 341L637 335L648 328L659 320L656 305L646 315L636 322L626 329L616 334L606 338L596 340L586 342L575 343L565 342L554 341L544 339L533 337L523 334L513 330L502 326L492 322L481 317L471 313L460 308L450 304L439 300L428 297L418 293L407 291L396 289L385 288L374 288L363 288L352 290L341 294L331 298L320 304L310 312L300 320L296 325L287 334L278 341L268 347L259 352L250 356L240 358L231 359L221 359L211 359L201 357L191 355L180 353L170 349L160 346L150 341L139 337L129 333L118 328L108 324L97 320L86 316L75 312L64 309L53 307L42 305L30 304L19 305L7 306L-4 308L-15 312L-27 317L-38 323L-49 331L-59 340Z"/><path d="M3 315L0 317L-2 319L-4 322L-5 324L-6 326L-7 328L-8 331L-9 333L-9 336L-9 338L-9 340L-9 342L-8 345L-8 347L-7 349L-6 351L-5 353L-4 355L-2 357L-1 358L1 360L2 361L4 363L6 364L8 365L10 366L11 367L13 368L15 368L17 369L19 370L21 370L23 371L25 371L27 372L29 372L31 372L33 373L35 373L37 374L39 374L41 375L43 375L45 376L46 376L44 375L42 374L40 373L39 372L37 371L35 370L33 369L32 368L30 367L28 366L27 365L25 364L24 362L23 361L22 360L21 359L20 357L19 356L18 355L17 354L17 352L16 351L16 350L15 349L15 347L15 346L15 345L14 344L14 343L14 342L14 340L13 339L13 338L13 336L12 335L12 333L11 332L11 330L10 328L9 326L9 324L8 322L6 320L5 317Z"/><path d="M121 337L124 334L126 332L127 330L128 328L129 326L130 324L131 323L132 321L133 320L133 318L134 317L135 315L135 314L135 313L136 312L136 311L137 310L137 309L138 308L138 306L139 305L139 304L140 303L141 302L141 301L142 300L143 298L145 297L146 296L147 295L149 294L150 293L152 292L153 291L155 290L157 289L158 289L160 288L162 287L164 287L166 286L168 285L170 285L172 284L173 284L171 284L169 284L167 284L165 285L163 285L161 285L159 285L157 285L155 285L153 285L151 285L148 285L146 286L144 286L142 286L140 287L138 287L136 287L134 288L132 289L131 290L129 291L127 292L125 293L123 294L122 296L120 297L119 299L117 301L116 303L115 305L114 307L113 309L113 311L112 314L112 316L112 318L112 321L113 323L113 326L114 328L116 331L117 333L119 336Z"/><path d="M236 363L232 364L230 366L228 369L227 371L225 373L224 375L223 377L223 380L222 382L222 384L222 387L222 389L222 391L223 394L223 396L224 398L225 400L226 402L227 404L229 406L230 407L232 409L233 410L235 411L237 413L238 414L240 415L242 416L244 417L246 417L248 418L250 419L252 419L253 420L255 421L257 421L259 422L261 422L263 423L265 423L267 424L269 425L271 425L273 426L274 426L272 425L270 424L269 423L267 422L265 421L263 420L262 419L260 418L259 416L257 415L256 414L255 413L253 411L252 410L251 409L250 407L249 406L248 405L248 403L247 402L247 401L246 399L246 398L246 397L245 396L245 394L245 393L245 392L245 391L244 390L244 389L244 387L244 386L244 385L243 383L243 381L243 380L242 378L242 376L241 374L240 372L240 370L239 367L237 365Z"/><path d="M339 303L339 300L339 297L339 294L338 292L338 290L337 288L337 286L337 284L336 283L336 281L335 280L335 279L334 277L334 276L333 275L333 274L332 273L332 272L332 271L331 270L331 268L330 267L330 266L330 265L330 263L330 262L330 260L330 259L330 257L330 255L331 254L331 252L331 250L332 248L333 246L333 245L334 243L335 241L336 239L337 237L338 236L339 234L340 232L341 231L342 230L340 231L339 233L337 234L336 236L335 237L333 238L332 240L330 241L329 243L327 244L326 246L325 247L323 249L322 250L321 252L319 253L318 255L317 257L316 259L315 260L314 262L313 264L313 266L312 268L312 271L312 273L312 275L312 277L312 280L312 282L313 284L314 286L315 288L316 290L317 292L319 294L320 296L322 298L324 299L326 300L328 302L331 303L334 303L337 304Z"/><path d="M452 313L448 313L445 314L443 315L441 316L438 318L436 319L435 321L433 323L432 324L430 326L429 328L428 330L427 333L427 335L426 337L426 339L426 342L426 344L426 346L427 348L427 350L428 352L429 354L430 356L431 358L432 360L433 362L434 363L435 365L437 366L438 368L440 369L441 371L442 372L444 374L445 375L447 376L448 378L450 379L451 381L453 382L454 383L456 385L457 386L458 387L457 385L456 384L455 382L453 380L452 379L451 377L450 375L450 373L449 371L448 370L447 368L447 366L446 364L446 363L445 361L445 359L445 358L445 356L445 355L445 353L445 352L445 351L445 349L446 348L446 347L446 346L447 345L447 344L448 342L448 341L448 340L449 339L449 338L450 336L450 335L450 333L451 332L451 330L452 328L452 326L452 324L453 321L453 318L453 315Z"/><path d="M570 347L572 343L573 341L573 338L574 336L574 334L575 332L575 330L575 328L575 327L576 325L576 324L576 322L576 321L576 320L576 318L576 317L576 316L576 315L576 314L576 312L576 311L577 310L577 309L577 307L578 306L578 305L579 303L579 302L580 300L581 299L582 297L583 296L584 295L586 293L587 292L588 290L590 289L591 288L593 286L594 285L596 284L598 283L599 282L601 281L602 280L600 281L598 281L596 282L594 283L592 284L590 285L589 285L587 286L585 287L583 288L581 288L579 289L577 290L576 291L574 292L572 293L570 294L568 295L567 296L565 298L564 299L562 301L561 302L559 304L558 306L557 308L556 310L555 312L555 314L554 316L554 318L554 321L554 323L554 325L554 328L555 330L556 332L557 334L558 337L559 339L561 341L563 343L565 344L568 346Z"/><path d="M382 421L378 420L374 418L371 416L368 413L365 410L363 407L361 404L359 401L358 398L357 394L357 391L356 388L356 384L357 381L357 378L358 375L360 372L361 370L363 367L365 365L367 363L369 362L371 360L374 359L376 358L379 358L381 357L384 357L386 357L388 358L391 358L393 359L395 360L397 361L398 363L400 364L401 366L402 367L403 369L404 371L405 373L405 374L405 376L406 378L405 380L405 382L405 383L404 385L403 386L402 388L401 389L400 390L399 391L398 392L396 393L395 393L394 394L392 394L391 394L389 394L388 394L387 394L385 393L384 393L383 392L382 391L381 391L380 390L380 389L379 388L379 387L378 386L378 385L378 383L378 382L378 381L378 380L378 379L378 378L379 377L379 377L380 376L381 375L381 374L382 374L381 375L380 375L379 376L379 377L378 378L378 379L377 380L377 381L377 382L377 383L377 384L377 385L377 387L377 388L378 389L379 390L379 391L380 392L381 393L383 394L384 395L385 396L387 396L388 396L390 397L392 397L393 397L395 396L397 396L398 395L400 394L402 393L403 392L404 391L406 389L407 388L408 386L409 384L409 382L410 380L410 377L410 375L410 373L409 370L408 368L407 366L406 364L405 361L403 359L401 358L399 356L397 354L394 353L391 352L388 351L385 351L382 351L379 351L376 351L373 352L370 353L367 355L364 357L361 359L358 361L356 364L354 367L352 370L350 374L349 378L348 382L348 386L348 390L348 394L349 398L350 402L352 407L354 411L357 414L360 418L363 422L367 425L371 427L376 430Z"/><path d="M131 236L128 235L123 234L119 233L115 233L110 233L106 234L101 235L97 237L92 239L88 241L84 244L81 248L77 251L74 255L71 260L69 264L67 269L65 275L64 280L63 286L63 291L64 297L64 303L66 309L68 315L71 320L74 326L78 331L82 336L87 340L92 344L98 348L104 351L111 354L118 356L125 357L132 358L140 358L148 358L155 356L163 354L170 351L178 348L185 343L192 338L198 332L204 326L210 319L214 311L219 303L222 294L225 285L226 276L227 266L227 256L227 246L225 235L222 225L218 215L213 205L207 196L200 187L193 178L184 171L175 163L164 157L153 152L141 147L129 144L116 141L103 140L90 140L76 141L63 144L49 148L36 153L23 160L10 168L-2 177L-13 187L-24 199L-33 212L-42 226L-49 241L-52 249L-45 233L-38 219L-28 206L-18 193L-7 182L4 173L17 164L29 157L43 151L56 147L70 144L83 142L97 141L110 142L123 144L135 147L147 151L158 156L169 162L178 168L187 176L195 184L202 193L208 202L214 211L218 221L221 231L223 241L224 251L225 261L224 270L223 280L220 289L217 298L214 306L209 313L204 320L199 327L192 333L186 338L179 342L172 346L165 349L158 351L151 353L143 353L136 354L129 353L122 352L116 350L109 348L104 345L98 342L93 338L88 334L84 330L81 325L77 320L75 315L73 310L71 304L70 299L70 294L70 289L70 284L71 279L72 274L74 270L76 265L78 261L81 258L84 255L87 252L91 249L94 247L98 245L102 244L105 243L109 242L113 242L117 242L120 242L124 243L127 244Z"/><path d="M300 222L300 224L300 225L300 226L301 227L301 228L302 229L302 229L303 230L303 230L304 231L305 231L305 232L306 232L307 232L308 232L308 233L309 233L310 233L311 233L311 233L312 233L313 233L314 233L315 232L315 232L316 232L317 232L318 232L318 231L319 231L320 231L321 231L321 231L322 230L323 230L323 230L324 230L325 229L326 229L326 229L327 229L328 229L328 228L329 228L329 228L329 228L328 228L327 228L327 228L326 227L325 227L325 227L324 227L323 226L323 226L322 226L321 226L321 225L320 225L319 225L319 224L318 224L318 224L317 223L316 223L316 222L315 222L315 222L314 221L314 221L313 221L313 221L312 220L312 220L311 220L311 220L310 219L309 219L309 219L308 219L308 219L307 219L306 219L306 219L305 220L304 220L303 220L302 221L301 221Z"/><path d="M300 222L298 223L298 224L297 225L296 226L296 227L296 227L296 228L295 229L295 230L295 231L296 231L296 232L296 233L296 234L297 234L297 235L297 236L298 236L298 237L299 238L299 238L300 239L300 239L301 240L302 240L302 241L303 241L303 242L304 242L305 243L305 243L306 244L307 244L307 244L308 245L309 245L309 246L310 246L310 246L311 247L311 247L312 248L313 248L313 249L313 249L313 248L313 248L312 247L312 246L312 246L312 245L311 244L311 244L311 243L311 242L311 242L310 241L310 240L310 239L310 239L310 238L310 237L310 237L310 236L310 235L310 235L309 234L309 233L309 233L309 232L309 232L309 231L309 230L309 230L309 229L308 229L308 228L308 228L308 227L307 227L307 226L307 226L306 225L306 225L305 224L304 224L303 223L302 223L301 222Z"/><path d="M300 222L298 221L297 221L296 221L295 222L294 222L293 222L292 222L292 223L291 223L290 224L290 224L289 225L289 226L289 226L288 227L288 228L288 228L287 229L287 230L287 231L287 232L287 232L287 233L287 234L287 235L287 235L287 236L287 237L287 238L287 239L287 239L287 240L287 241L287 242L287 242L287 243L287 244L287 245L287 245L287 246L287 247L287 247L287 248L287 249L287 249L288 249L288 248L288 247L289 247L289 246L289 245L290 245L290 244L290 244L291 243L291 242L292 242L292 241L293 241L293 240L294 240L294 239L295 239L295 238L296 238L296 237L296 237L297 236L297 236L298 236L298 235L299 235L299 234L299 234L300 233L300 233L300 232L301 232L301 231L301 231L301 230L301 229L301 229L301 228L301 227L301 226L301 225L301 224L300 223Z"/><path d="M300 222L299 220L299 219L298 218L297 218L296 217L296 217L295 216L294 216L293 216L293 216L292 216L291 216L290 216L289 216L289 216L288 216L287 216L286 217L286 217L285 217L284 218L284 218L283 219L282 219L282 219L281 220L280 220L280 221L279 221L279 222L278 223L278 223L277 224L277 224L276 225L275 225L275 226L274 226L274 227L273 227L273 228L272 228L272 228L271 229L271 229L272 229L272 229L273 229L274 228L274 228L275 228L276 228L276 228L277 228L278 228L279 228L279 228L280 228L281 228L281 228L282 228L283 228L284 228L284 228L285 228L285 228L286 229L287 229L287 229L288 229L289 229L289 229L290 229L290 229L291 229L292 229L292 229L293 229L293 228L294 228L294 228L295 228L296 227L296 227L297 226L297 226L298 225L299 224L300 223Z"/><path d="M300 222L301 220L301 219L302 218L302 217L302 216L301 215L301 215L301 214L301 213L300 212L300 212L299 211L299 210L298 210L298 209L297 209L296 208L296 208L295 208L294 207L294 207L293 207L292 207L291 206L291 206L290 206L289 206L288 206L288 205L287 205L286 205L285 205L284 205L284 205L283 205L282 205L282 205L281 205L280 204L279 204L279 204L278 204L277 204L277 204L276 204L277 204L277 205L278 205L278 205L279 206L280 206L280 207L281 207L281 208L282 208L282 209L282 210L283 210L283 211L284 211L284 212L284 212L285 213L285 214L286 214L286 215L286 215L287 216L287 216L287 217L288 217L288 218L288 218L289 219L289 219L289 220L290 220L290 220L291 221L291 221L292 221L292 222L293 222L294 222L295 222L296 222L297 222L298 222L299 222Z"/><path d="M300 222L302 222L303 221L304 221L305 220L305 220L306 219L307 218L307 218L308 217L308 216L308 215L308 215L308 214L308 213L308 212L308 212L308 211L308 210L308 209L308 208L308 208L307 207L307 206L307 205L307 205L306 204L306 203L305 203L305 202L305 201L304 201L304 200L304 199L303 199L303 198L302 197L302 197L302 196L301 196L301 195L301 194L300 194L300 193L300 192L300 192L300 193L300 193L300 194L300 195L300 196L299 196L299 197L299 198L299 198L299 199L299 200L299 200L299 201L298 202L298 203L298 203L298 204L298 205L297 205L297 206L297 206L297 207L297 208L296 208L296 209L296 209L296 210L296 211L295 211L295 212L295 212L295 213L295 213L295 214L295 215L295 215L296 216L296 217L296 217L297 218L297 219L298 220L298 220L299 221Z"/><path d="M300 222L301 223L302 224L303 224L304 225L305 225L306 225L307 225L308 225L309 225L309 224L310 224L311 224L312 224L312 223L313 223L313 222L314 222L315 221L315 220L316 220L316 219L316 218L317 218L317 217L318 216L318 216L318 215L319 214L319 214L319 213L319 212L320 211L320 211L320 210L320 209L321 209L321 208L321 207L322 206L322 206L322 205L322 205L323 204L323 203L323 203L323 203L322 204L322 204L321 205L320 205L320 206L319 206L319 206L318 207L317 207L317 207L316 208L315 208L315 208L314 208L313 209L313 209L312 209L312 209L311 210L310 210L310 210L309 210L308 211L308 211L307 211L307 211L306 211L306 212L305 212L305 212L304 213L304 213L303 213L303 214L302 214L302 215L302 215L301 216L301 217L301 218L300 219L300 220L300 221Z"/><path d="M294.9 222.0 a5.1 5.1 0 1 0 10.2 0 a5.1 5.1 0 1 0 -10.2 0Z"/><path d="M46 330L45 331L45 332L45 333L45 333L45 334L45 335L45 335L45 336L45 337L45 337L46 338L46 338L46 339L47 339L47 339L48 340L48 340L49 340L49 341L50 341L50 341L51 341L51 342L52 342L52 342L53 342L54 342L54 342L55 342L55 343L56 343L56 343L57 343L57 343L58 343L59 343L59 343L60 343L60 343L61 344L61 344L62 344L62 344L63 344L63 344L62 344L62 343L62 343L61 343L61 342L61 342L60 342L60 341L59 341L59 340L59 340L59 340L58 339L58 339L58 338L57 338L57 337L57 337L57 337L56 336L56 336L56 335L56 335L55 335L55 334L55 334L55 333L54 333L54 333L54 332L54 332L53 332L53 331L53 331L52 331L52 331L52 331L51 330L50 330L50 330L49 330L49 330L48 330L47 330Z"/><path d="M46 330L45 330L44 330L43 330L42 331L42 331L41 331L41 332L40 332L40 333L40 333L39 334L39 334L39 335L39 335L39 336L38 336L38 337L38 338L38 338L38 339L38 339L39 340L39 340L39 341L39 342L39 342L39 343L39 343L40 344L40 344L40 345L40 345L40 346L41 346L41 347L41 347L41 348L41 348L41 349L42 349L42 350L42 350L42 351L42 351L42 352L42 351L42 351L42 350L43 350L43 349L43 349L43 348L43 348L43 347L44 347L44 346L44 346L44 345L44 345L45 344L45 344L45 343L45 343L46 342L46 342L46 342L46 341L47 341L47 340L47 340L47 340L47 339L48 339L48 338L48 338L48 338L48 337L48 337L48 336L48 336L48 336L48 335L48 335L48 334L48 333L48 333L47 332L47 331L47 331Z"/><path d="M46 330L45 329L45 328L44 328L44 327L43 327L42 326L42 326L41 326L41 326L40 326L40 326L39 326L38 326L38 326L37 326L37 327L36 327L36 327L35 327L35 328L34 328L34 328L33 329L33 329L32 330L32 330L32 330L31 331L31 331L31 332L30 332L30 333L29 333L29 333L29 334L28 334L28 335L28 335L27 335L27 336L27 336L26 337L26 337L25 337L25 338L26 337L26 337L27 337L27 337L28 337L28 337L29 336L29 336L30 336L30 336L31 336L31 336L32 336L32 336L33 336L33 336L34 336L34 336L35 336L35 336L36 336L36 336L37 336L37 336L38 336L38 336L39 336L39 336L40 336L40 336L40 336L41 336L41 335L42 335L42 335L42 335L43 335L43 334L44 334L44 333L44 333L45 332L45 332L46 331Z"/><path d="M46 330L47 329L47 328L47 327L47 327L47 326L47 325L47 325L47 324L47 323L47 323L46 322L46 322L46 321L45 321L45 321L44 320L44 320L43 320L43 319L42 319L42 319L41 319L41 318L40 318L40 318L39 318L38 318L38 318L37 318L37 317L36 317L36 317L35 317L35 317L34 317L33 317L33 317L32 317L32 317L31 316L31 316L30 316L30 316L29 316L29 316L30 316L30 317L30 317L31 317L31 318L31 318L32 318L32 319L33 319L33 320L33 320L33 320L34 321L34 321L34 322L35 322L35 323L35 323L35 323L36 324L36 324L36 325L36 325L37 325L37 326L37 326L37 327L38 327L38 327L38 328L38 328L39 328L39 329L39 329L40 329L40 329L40 329L41 330L42 330L42 330L43 330L43 330L44 330L45 330Z"/><path d="M46 330L47 330L48 330L49 330L50 329L50 329L51 329L51 328L52 328L52 327L52 327L53 326L53 326L53 325L53 325L53 324L54 324L54 323L54 322L54 322L54 321L54 321L53 320L53 320L53 319L53 318L53 318L53 317L53 317L52 316L52 316L52 315L52 315L52 314L51 314L51 313L51 313L51 312L51 312L51 311L50 311L50 310L50 310L50 309L50 309L50 308L50 309L50 309L50 310L49 310L49 311L49 311L49 312L49 312L49 313L48 313L48 314L48 314L48 315L48 315L47 316L47 316L47 317L47 317L46 318L46 318L46 318L46 319L45 319L45 320L45 320L45 320L45 321L44 321L44 322L44 322L44 322L44 323L44 323L44 324L44 324L44 324L44 325L44 325L44 326L44 327L44 327L45 328L45 329L45 329Z"/><path d="M46 330L47 331L47 332L48 332L48 333L49 333L50 334L50 334L51 334L51 334L52 334L52 334L53 334L54 334L54 334L55 334L55 333L56 333L56 333L57 333L57 332L58 332L58 332L59 331L59 331L60 330L60 330L60 330L61 329L61 329L61 328L62 328L62 327L63 327L63 327L63 326L64 326L64 325L64 325L65 325L65 324L65 324L66 323L66 323L67 323L67 322L66 323L66 323L65 323L65 323L64 323L64 323L63 324L63 324L62 324L62 324L61 324L61 324L60 324L60 324L59 324L59 324L58 324L58 324L57 324L57 324L56 324L56 324L55 324L55 324L54 324L54 324L53 324L53 324L52 324L52 324L52 324L51 324L51 325L50 325L50 325L50 325L49 325L49 326L48 326L48 327L48 327L47 328L47 328L46 329Z"/><path d="M42.3 330.0 a3.7 3.7 0 1 0 7.5 0 a3.7 3.7 0 1 0 -7.5 0Z"/><path d="M556 108L555 109L555 110L555 111L555 111L555 112L555 113L555 113L555 114L555 115L555 115L556 116L556 116L556 117L557 117L557 117L558 118L558 118L559 118L559 119L560 119L560 119L561 119L561 120L562 120L562 120L563 120L564 120L564 120L565 120L565 121L566 121L566 121L567 121L567 121L568 121L569 121L569 121L570 121L570 121L571 122L571 122L572 122L572 122L573 122L573 122L572 122L572 121L572 121L571 121L571 120L571 120L570 120L570 119L569 119L569 118L569 118L569 118L568 117L568 117L568 116L567 116L567 115L567 115L567 115L566 114L566 114L566 113L566 113L565 113L565 112L565 112L565 111L564 111L564 111L564 110L564 110L563 110L563 109L563 109L562 109L562 109L562 109L561 108L560 108L560 108L559 108L559 108L558 108L557 108Z"/><path d="M556 108L555 108L554 108L553 108L552 109L552 109L551 109L551 110L550 110L550 111L550 111L549 112L549 112L549 113L549 113L549 114L548 114L548 115L548 116L548 116L548 117L548 117L549 118L549 118L549 119L549 120L549 120L549 121L549 121L550 122L550 122L550 123L550 123L550 124L551 124L551 125L551 125L551 126L551 126L551 127L552 127L552 128L552 128L552 129L552 129L552 130L552 129L552 129L552 128L553 128L553 127L553 127L553 126L553 126L553 125L554 125L554 124L554 124L554 123L554 123L555 122L555 122L555 121L555 121L556 120L556 120L556 120L556 119L557 119L557 118L557 118L557 118L557 117L558 117L558 116L558 116L558 116L558 115L558 115L558 114L558 114L558 114L558 113L558 113L558 112L558 111L558 111L557 110L557 109L557 109Z"/><path d="M556 108L555 107L555 106L554 106L554 105L553 105L552 104L552 104L551 104L551 104L550 104L550 104L549 104L548 104L548 104L547 104L547 105L546 105L546 105L545 105L545 106L544 106L544 106L543 107L543 107L542 108L542 108L542 108L541 109L541 109L541 110L540 110L540 111L539 111L539 111L539 112L538 112L538 113L538 113L537 113L537 114L537 114L536 115L536 115L535 115L535 116L536 115L536 115L537 115L537 115L538 115L538 115L539 114L539 114L540 114L540 114L541 114L541 114L542 114L542 114L543 114L543 114L544 114L544 114L545 114L545 114L546 114L546 114L547 114L547 114L548 114L548 114L549 114L549 114L550 114L550 114L550 114L551 114L551 113L552 113L552 113L552 113L553 113L553 112L554 112L554 111L554 111L555 110L555 110L556 109Z"/><path d="M556 108L557 107L557 106L557 105L557 105L557 104L557 103L557 103L557 102L557 101L557 101L556 100L556 100L556 99L555 99L555 99L554 98L554 98L553 98L553 97L552 97L552 97L551 97L551 96L550 96L550 96L549 96L548 96L548 96L547 96L547 95L546 95L546 95L545 95L545 95L544 95L543 95L543 95L542 95L542 95L541 94L541 94L540 94L540 94L539 94L539 94L540 94L540 95L540 95L541 95L541 96L541 96L542 96L542 97L543 97L543 98L543 98L543 98L544 99L544 99L544 100L545 100L545 101L545 101L545 101L546 102L546 102L546 103L546 103L547 103L547 104L547 104L547 105L548 105L548 105L548 106L548 106L549 106L549 107L549 107L550 107L550 107L550 107L551 108L552 108L552 108L553 108L553 108L554 108L555 108Z"/><path d="M556 108L557 108L558 108L559 108L560 107L560 107L561 107L561 106L562 106L562 105L562 105L563 104L563 104L563 103L563 103L563 102L564 102L564 101L564 100L564 100L564 99L564 99L563 98L563 98L563 97L563 96L563 96L563 95L563 95L562 94L562 94L562 93L562 93L562 92L561 92L561 91L561 91L561 90L561 90L561 89L560 89L560 88L560 88L560 87L560 87L560 86L560 87L560 87L560 88L559 88L559 89L559 89L559 90L559 90L559 91L558 91L558 92L558 92L558 93L558 93L557 94L557 94L557 95L557 95L556 96L556 96L556 96L556 97L555 97L555 98L555 98L555 98L555 99L554 99L554 100L554 100L554 100L554 101L554 101L554 102L554 102L554 102L554 103L554 103L554 104L554 105L554 105L555 106L555 107L555 107Z"/><path d="M556 108L557 109L557 110L558 110L558 111L559 111L560 112L560 112L561 112L561 112L562 112L562 112L563 112L564 112L564 112L565 112L565 111L566 111L566 111L567 111L567 110L568 110L568 110L569 109L569 109L570 108L570 108L570 108L571 107L571 107L571 106L572 106L572 105L573 105L573 105L573 104L574 104L574 103L574 103L575 103L575 102L575 102L576 101L576 101L577 101L577 100L576 101L576 101L575 101L575 101L574 101L574 101L573 102L573 102L572 102L572 102L571 102L571 102L570 102L570 102L569 102L569 102L568 102L568 102L567 102L567 102L566 102L566 102L565 102L565 102L564 102L564 102L563 102L563 102L562 102L562 102L562 102L561 102L561 103L560 103L560 103L560 103L559 103L559 104L558 104L558 105L558 105L557 106L557 106L556 107Z"/><path d="M552.3 108.0 a3.7 3.7 0 1 0 7.5 0 a3.7 3.7 0 1 0 -7.5 0Z"/><path d="M151.0 240.0 a9.0 9.0 0 1 0 18.0 0 a9.0 9.0 0 1 0 -18.0 0Z"/><path d="M431.0 210.0 a9.0 9.0 0 1 0 18.0 0 a9.0 9.0 0 1 0 -18.0 0Z"/></g><pattern id="wp-loops" patternUnits="userSpaceOnUse" width="510" height="374" viewBox="0 0 600 440" fill="#FFFFFF"><use href="#m-loops" xlink:href="#m-loops" x="-600" y="-440"/><use href="#m-loops" xlink:href="#m-loops" x="-600" y="0"/><use href="#m-loops" xlink:href="#m-loops" x="-600" y="440"/><use href="#m-loops" xlink:href="#m-loops" x="0" y="-440"/><use href="#m-loops" xlink:href="#m-loops" x="0" y="0"/><use href="#m-loops" xlink:href="#m-loops" x="0" y="440"/><use href="#m-loops" xlink:href="#m-loops" x="600" y="-440"/><use href="#m-loops" xlink:href="#m-loops" x="600" y="0"/><use href="#m-loops" xlink:href="#m-loops" x="600" y="440"/></pattern></defs><rect width="600" height="440" fill="url(#wp-loops)"/></svg>